<?xml version="1.0" encoding="UTF-8"?>
<svg id="Layer_2" data-name="Layer 2" xmlns="http://www.w3.org/2000/svg" viewBox="0 0 374.14 579.52">
  <g id="Layer_1-2" data-name="Layer 1">
    <g>
      <path d="M174.79,51.05c-.05-.39-.93-2.72-1.89-2.37-4.14,19.76-12.51,38.78-21.67,56.68-21.36,41.71-55.7,77.69-59.06,127.08-4.01,58.93,41,92.66,86.41,119.26l-9.03,1.96c-75.38-3.23-115.88-52.64-122.91-124.99-3.5-36.02,4.08-70.85,4.78-106.34.36-18.37-2.94-34.99-19.96-44.7l-13.3-6.15c15.81-7.5,33.26,1.51,39.37,17.1,7.36,18.77-.02,50.49-1.4,70.76-.08,1.11-.39,6.17.46,6.18,21.83-47.64,58.66-88.2,76.85-137.79,4.08-11.12,4.32-31.82,21.24-26.87,9.61,2.81,14.48,20.78,14.4,29.76,14.27-2.57,19.06,13.27,18.99,24.69,2.85.46,1.53-.69,1.92-2.3,1.56-6.43,1.29-11.41,5.67-17.16,4.02-5.28,6.86-4.78,12.88-6.11.92-11.96,6.4-33.03,22.52-29.31,7.85,1.81,11.35,22.13,14.18,29.5,7.07,18.38,18.31,37.36,28.09,54.53,15.17,26.64,32.65,52.02,45.26,80.1.9-1.17.57-3.73.46-5.21-1.36-18.41-6.26-40.71-4.72-58.89,1.75-20.76,20.61-38.78,41.75-28.97.45,2.46-.35,1.46-1.34,1.97-11.42,5.84-17.88,5.19-25.41,18.26-11.31,19.62-2.51,67.63-1.68,91.33,2.24,63.91-8.5,135.09-75.49,161.06-17.18,6.66-39.31,11.29-57.44,8.06,4.79-4.39,11.87-6.65,17.33-10,60.79-37.38,88.29-84.91,59.73-156.41-7.48-18.74-19.48-34.88-29.42-52.25-15.05-26.3-30.28-54.17-37.21-83.88-.25-.31-1.89,1.21-1.89,1.42v17.1c0,29.33,40.95,89.09,53.97,117.92,10.46,23.15,13.81,44.99,5.82,69.68-2.95-1.73-1.55-6.9-2-9.86-6.17-40.28-33-75.91-50.07-112.33-9.63-20.55-19.42-43.01-21.03-65.88-1.88.39-1.61,1.95-1.88,3.33-5.43,28.45-14.13,48.73-27.38,74.25-18.12,34.91-45.21,69.64-45.74,110.5-1.54,2.1-5.21-14.55-5.43-15.93-6.87-43.75,30.81-86.29,48.97-124.31,4.36-9.12,16.27-36.53,16.27-45.46,0-5.65.73-13.76,0-19ZM90.3,172.16c12.4-23.42,28.73-44.72,41.77-67.92,14.45-25.71,32.7-57.98,20.88-87.85l-5.96,22.04c-7.29,38.29-62.34,92.06-58.47,129.35.1.97.38,4.46,1.77,4.38ZM286.8,172.16c3.77-17.99-4.8-36.38-13.12-51.93-17.81-33.3-43.28-65.04-48.1-103.85-12.71,23.55.9,48.25,10.74,69.98l50.47,85.79Z"/>
      <path d="M215.14,421.04c-10.57-1.12-23.07-7.79-31.29-14.3-13.18,9.61-27.86,14.9-44.18,16.19,2.57-2.81,7.5-2.89,11.09-4.57,15.94-7.45,27.73-25.13,30.25-42.76l-27.8,23.56c-7.11,3.52-11.01,7.2-19.44,6.41-34.34-3.22-72.69-26.66-94.69-52.48C4.62,312.65-3.25,264.45,1.09,212.54c3.66-43.82,17.97-86.44,17.09-130.62,20.81,8.56,19.62,30.7,19.02,49.91-2.04,64.51-15.55,140.22,31.26,193.77,43.87,50.18,163.39,52.92,216.38,17.94,69.22-45.7,54.58-140.5,52.25-210.76-.63-18.96-1.89-41.75,19.02-49.91-.31,36.84,10.35,72.61,15.04,108.92,6.86,53.15,3.74,105.42-27.93,150.32-20.39,28.91-56.17,55.16-91.47,61.4-30.18,5.34-48.19-9.48-69.34-28.07,3.83,15.75,15.22,30.68,30.03,37.86l20.27,7.74c-5.64-.43-12.02.59-17.56,0Z"/>
      <path d="M157.71,557.84c-10.25,18.83-42.15,30.71-58.53,12.97-1.46-1.59-3.52-6.6-4.78-7.34-2.03-1.19-5.74-.82-8.42-1.79-41.84-15.05-29.21-77.58,14.28-74.13,30.82,2.45,42.99,41.84,23.24,64.07-4.57,5.15-9.55,6.89-15.14,10.48,14.18,10.07,34.56.79,49.34-4.26ZM117.83,539.77c4.76-13,4.32-25.91-7.65-34.6-26.54-19.29-51.96,23.13-27.4,40.72,4.82,3.45,20.79,6.99,24.72,2.06,4.22-5.29-1.85-21.01-10.54-18.63,5.51-6.12,12.96-2.51,16.52,3.9,1.29,2.32,1,6.69,4.36,6.55Z"/>
      <path d="M271.62,548.33h41.77l-7.37-9.01,6.04-10.06c2.88-.49,13.06,9.62,13.99,12.58,1.96,6.24-1.18,13.4-6.62,16.81-.65.41-6.15,2.99-6.51,2.99h-104.89c1.01-9.49,8.58-13.33,17.14-14.83l-1.01-57.36h13.29v58.89h34.17Z"/>
      <path d="M157.71,489.43c-.1,13.84-4.68,41.38,3.8,52.71,7.19,9.6,21.92,8.94,28.88-.53,1.42-1.93,4.33-8.77,4.33-10.86v-41.32h12.34v43.22c0,5.75-6.53,17.46-10.92,21.37-19.3,17.18-51.73,3.97-51.73-22.32v-42.27h13.29Z"/>
    </g>
  </g>
</svg>